# xmcd
#
# Track frame offsets: 
#        150
#        8598
#        19130
#        35058
#        46204
#        58125
#        72028
#        80357
#        94170
#        107353
#        119653
#        136720
#        147826
#        160523
#        175081
#        185452
#        210959
#        224799
#        232923
#        245393
#        261179
#
# Disc length: 3647 seconds
#
# Revision: 0
# Processed by: cddbd v1.5.2PL0 Copyright (c) Steve Scherf et al.
# Submitted via: ExactAudioCopyFreeDBPlugin 1.0
#
DISCID=180e3d15
DTITLE=The Attention - Gettin' all the Attention
DYEAR=2013
DGENRE=Soul
TTITLE0=Blue Heat
TTITLE1=Have a Drink
TTITLE2=Button-Down Harry's Back!
TTITLE3=Dandy Groove
TTITLE4=Easy Street
TTITLE5=That's How Strong My Love Is
TTITLE6=Let's Dance
TTITLE7=Tons Of Love
TTITLE8=The Harder They Come
TTITLE9=Mess Around
TTITLE10=No One Else
TTITLE11=Ace Face
TTITLE12=Can't Bring A Good Man Down
TTITLE13=Shimminyzer
TTITLE14=Kaiser's Dance
TTITLE15=Blank Love Boogie
TTITLE16=High Time Baby
TTITLE17=Beat Machine
TTITLE18=Alina
TTITLE19=Rambler's Blues
TTITLE20=Sea Sea Rider
EXTD=
EXTT0=
EXTT1=
EXTT2=
EXTT3=
EXTT4=
EXTT5=
EXTT6=
EXTT7=
EXTT8=
EXTT9=
EXTT10=
EXTT11=
EXTT12=
EXTT13=
EXTT14=
EXTT15=
EXTT16=
EXTT17=
EXTT18=
EXTT19=
EXTT20=
PLAYORDER=
